<mxfile host="app.diagrams.net" modified="2023-01-16T13:00:09.569Z" agent="5.0 (Windows NT 10.0; Win64; x64) AppleWebKit/537.36 (KHTML, like Gecko) Chrome/108.0.0.0 Safari/537.36" version="20.8.5" etag="bZ6oBvfnF5PCDJnCX0qX" type="github">
  <diagram id="5MJefJD5TIYJ90gqTmt7" name="PÃ¡gina-1">
    <mxGraphModel dx="880" dy="476" grid="1" gridSize="10" guides="1" tooltips="1" connect="1" arrows="1" fold="1" page="1" pageScale="1" pageWidth="827" pageHeight="1169" math="0" shadow="0">
      <root>
        <mxCell id="0" />
        <mxCell id="1" parent="0" />
        <mxCell id="3oq-BTttsZXtpVzwzhvg-4" value="" style="edgeStyle=orthogonalEdgeStyle;rounded=0;orthogonalLoop=1;jettySize=auto;html=1;" edge="1" parent="1" source="3oq-BTttsZXtpVzwzhvg-1" target="3oq-BTttsZXtpVzwzhvg-3">
          <mxGeometry relative="1" as="geometry" />
        </mxCell>
        <mxCell id="3oq-BTttsZXtpVzwzhvg-1" value="" style="ellipse;whiteSpace=wrap;html=1;aspect=fixed;fillColor=#d5e8d4;strokeColor=#82b366;" vertex="1" parent="1">
          <mxGeometry x="190" y="220" width="80" height="80" as="geometry" />
        </mxCell>
        <mxCell id="3oq-BTttsZXtpVzwzhvg-2" value="Inicio" style="text;html=1;strokeColor=none;fillColor=none;align=center;verticalAlign=middle;whiteSpace=wrap;rounded=0;" vertex="1" parent="1">
          <mxGeometry x="200" y="245" width="60" height="30" as="geometry" />
        </mxCell>
        <mxCell id="3oq-BTttsZXtpVzwzhvg-8" value="" style="edgeStyle=orthogonalEdgeStyle;rounded=0;orthogonalLoop=1;jettySize=auto;html=1;" edge="1" parent="1" source="3oq-BTttsZXtpVzwzhvg-3" target="3oq-BTttsZXtpVzwzhvg-7">
          <mxGeometry relative="1" as="geometry" />
        </mxCell>
        <mxCell id="3oq-BTttsZXtpVzwzhvg-3" value="Mostrar texto en pantalla" style="shape=parallelogram;perimeter=parallelogramPerimeter;whiteSpace=wrap;html=1;fixedSize=1;fillColor=#dae8fc;strokeColor=#6c8ebf;" vertex="1" parent="1">
          <mxGeometry x="170" y="340" width="120" height="60" as="geometry" />
        </mxCell>
        <mxCell id="3oq-BTttsZXtpVzwzhvg-13" value="" style="edgeStyle=orthogonalEdgeStyle;rounded=0;orthogonalLoop=1;jettySize=auto;html=1;" edge="1" parent="1" source="3oq-BTttsZXtpVzwzhvg-5" target="3oq-BTttsZXtpVzwzhvg-11">
          <mxGeometry relative="1" as="geometry" />
        </mxCell>
        <mxCell id="3oq-BTttsZXtpVzwzhvg-14" value="" style="edgeStyle=orthogonalEdgeStyle;rounded=0;orthogonalLoop=1;jettySize=auto;html=1;" edge="1" parent="1" source="3oq-BTttsZXtpVzwzhvg-5" target="3oq-BTttsZXtpVzwzhvg-10">
          <mxGeometry relative="1" as="geometry" />
        </mxCell>
        <mxCell id="3oq-BTttsZXtpVzwzhvg-5" value="Edad &amp;lt; 40" style="rhombus;whiteSpace=wrap;html=1;fillColor=#fff2cc;strokeColor=#d6b656;" vertex="1" parent="1">
          <mxGeometry x="190" y="530" width="80" height="80" as="geometry" />
        </mxCell>
        <mxCell id="3oq-BTttsZXtpVzwzhvg-9" value="" style="edgeStyle=orthogonalEdgeStyle;rounded=0;orthogonalLoop=1;jettySize=auto;html=1;" edge="1" parent="1" source="3oq-BTttsZXtpVzwzhvg-7" target="3oq-BTttsZXtpVzwzhvg-5">
          <mxGeometry relative="1" as="geometry" />
        </mxCell>
        <mxCell id="3oq-BTttsZXtpVzwzhvg-7" value="ingresar edad" style="shape=parallelogram;perimeter=parallelogramPerimeter;whiteSpace=wrap;html=1;fixedSize=1;fillColor=#dae8fc;strokeColor=#6c8ebf;" vertex="1" parent="1">
          <mxGeometry x="170" y="440" width="120" height="60" as="geometry" />
        </mxCell>
        <mxCell id="3oq-BTttsZXtpVzwzhvg-10" value="mostrar &quot;eres muy joven&quot;" style="shape=parallelogram;perimeter=parallelogramPerimeter;whiteSpace=wrap;html=1;fixedSize=1;" vertex="1" parent="1">
          <mxGeometry x="10" y="540" width="130" height="60" as="geometry" />
        </mxCell>
        <mxCell id="3oq-BTttsZXtpVzwzhvg-11" value="mostrar &quot;eres muy viejo&quot;" style="shape=parallelogram;perimeter=parallelogramPerimeter;whiteSpace=wrap;html=1;fixedSize=1;" vertex="1" parent="1">
          <mxGeometry x="320" y="540" width="130" height="60" as="geometry" />
        </mxCell>
        <mxCell id="3oq-BTttsZXtpVzwzhvg-15" value="Fin" style="ellipse;whiteSpace=wrap;html=1;aspect=fixed;fillColor=#f8cecc;strokeColor=#b85450;" vertex="1" parent="1">
          <mxGeometry x="190" y="650" width="80" height="80" as="geometry" />
        </mxCell>
        <mxCell id="3oq-BTttsZXtpVzwzhvg-16" value="" style="edgeStyle=elbowEdgeStyle;elbow=vertical;endArrow=classic;html=1;curved=0;rounded=0;endSize=8;startSize=8;exitX=0.5;exitY=1;exitDx=0;exitDy=0;entryX=1.025;entryY=0.625;entryDx=0;entryDy=0;entryPerimeter=0;" edge="1" parent="1" source="3oq-BTttsZXtpVzwzhvg-11" target="3oq-BTttsZXtpVzwzhvg-15">
          <mxGeometry width="50" height="50" relative="1" as="geometry">
            <mxPoint x="390" y="650" as="sourcePoint" />
            <mxPoint x="270" y="690" as="targetPoint" />
            <Array as="points">
              <mxPoint x="330" y="700" />
            </Array>
          </mxGeometry>
        </mxCell>
        <mxCell id="3oq-BTttsZXtpVzwzhvg-17" value="" style="edgeStyle=elbowEdgeStyle;elbow=vertical;endArrow=classic;html=1;curved=0;rounded=0;endSize=8;startSize=8;exitX=0.5;exitY=1;exitDx=0;exitDy=0;entryX=1.025;entryY=0.625;entryDx=0;entryDy=0;entryPerimeter=0;" edge="1" parent="1">
          <mxGeometry width="50" height="50" relative="1" as="geometry">
            <mxPoint x="385" y="600" as="sourcePoint" />
            <mxPoint x="272" y="700" as="targetPoint" />
            <Array as="points">
              <mxPoint x="330" y="700" />
            </Array>
          </mxGeometry>
        </mxCell>
        <mxCell id="3oq-BTttsZXtpVzwzhvg-18" value="" style="edgeStyle=elbowEdgeStyle;elbow=vertical;endArrow=classic;html=1;curved=0;rounded=0;endSize=8;startSize=8;exitX=0.5;exitY=1;exitDx=0;exitDy=0;" edge="1" parent="1" source="3oq-BTttsZXtpVzwzhvg-10">
          <mxGeometry width="50" height="50" relative="1" as="geometry">
            <mxPoint x="80" y="660" as="sourcePoint" />
            <mxPoint x="190" y="700" as="targetPoint" />
            <Array as="points">
              <mxPoint x="130" y="700" />
            </Array>
          </mxGeometry>
        </mxCell>
        <mxCell id="3oq-BTttsZXtpVzwzhvg-19" value="SI" style="text;html=1;strokeColor=none;fillColor=none;align=center;verticalAlign=middle;whiteSpace=wrap;rounded=0;" vertex="1" parent="1">
          <mxGeometry x="140" y="540" width="60" height="30" as="geometry" />
        </mxCell>
        <mxCell id="3oq-BTttsZXtpVzwzhvg-20" value="NO" style="text;html=1;strokeColor=none;fillColor=none;align=center;verticalAlign=middle;whiteSpace=wrap;rounded=0;" vertex="1" parent="1">
          <mxGeometry x="270" y="540" width="60" height="30" as="geometry" />
        </mxCell>
      </root>
    </mxGraphModel>
  </diagram>
</mxfile>
